<?xml version="1.0" standalone="no"?>
<!DOCTYPE svg PUBLIC "-//W3C//DTD SVG 20010904//EN"
 "http://www.w3.org/TR/2001/REC-SVG-20010904/DTD/svg10.dtd">
<svg version="1.0" xmlns="http://www.w3.org/2000/svg"
 width="700.000000pt" height="700.000000pt" viewBox="0 0 700.000000 700.000000"
 preserveAspectRatio="xMidYMid meet">
<metadata>
Created by potrace 1.14, written by Peter Selinger 2001-2017
</metadata>
<g transform="translate(0.000000,700.000000) scale(0.100000,-0.100000)"
fill="#000000" stroke="none">
<path d="M3299 6996 c-2 -2 -42 -6 -89 -10 -47 -3 -96 -8 -110 -10 -14 -3 -43
-7 -65 -10 -22 -3 -51 -8 -65 -10 -14 -3 -53 -10 -87 -16 -100 -17 -320 -76
-430 -114 -311 -109 -601 -263 -872 -463 -114 -85 -135 -103 -244 -203 -32
-30 -70 -64 -83 -75 l-25 -21 207 -207 206 -207 87 80 c136 125 288 235 496
358 37 21 199 100 265 127 550 232 1196 263 1780 87 367 -111 750 -334 1024
-596 32 -31 60 -56 61 -56 6 0 405 403 405 410 0 12 -148 147 -270 246 -339
275 -819 511 -1230 604 -108 24 -180 39 -215 44 -23 4 -52 9 -65 11 -14 3 -56
8 -95 11 -38 3 -74 8 -79 12 -10 5 -501 14 -507 8z"/>
<path d="M3478 5835 c-2 -1 -50 -5 -108 -8 -458 -24 -920 -223 -1260 -541 -50
-47 -51 -48 -33 -68 23 -26 333 -336 366 -367 l26 -23 70 60 c200 172 484 309
704 338 23 3 62 10 87 14 85 16 347 5 457 -19 250 -52 475 -163 667 -326 67
-58 79 -65 93 -53 20 17 364 360 381 381 11 13 5 22 -35 60 -295 277 -683 465
-1088 528 -33 5 -112 12 -175 15 -63 3 -123 7 -132 8 -9 2 -18 3 -20 1z"/>
<path d="M2565 4368 c-86 -18 -155 -74 -203 -163 l-27 -50 -1 -1805 c-1 -1923
-3 -1846 46 -1926 28 -44 90 -92 149 -115 46 -17 96 -18 982 -16 l934 2 56 27
c83 41 133 104 154 193 9 37 12 507 10 1845 l-1 1795 -22 46 c-29 63 -85 117
-151 147 l-56 26 -917 1 c-505 0 -933 -3 -953 -7z m1519 -2038 l1 -1455 -580
-1 c-456 0 -581 3 -585 13 -3 7 -5 662 -4 1455 l0 1443 150 5 c82 3 344 3 583
0 l435 -5 0 -1455z"/>
<path d="M3404 3482 c-152 -54 -228 -211 -178 -368 50 -159 244 -242 397 -170
135 65 201 227 148 366 -25 68 -88 135 -149 163 -64 28 -155 32 -218 9z"/>
</g>
</svg>
